<svg width="3420" height="3060" viewBox="0 0 3420 3060" fill="none" xmlns="http://www.w3.org/2000/svg">
<rect width="3420" height="3060" fill="white"/>
<path fill-rule="evenodd" clip-rule="evenodd" d="M1698.66 67.3894C2113.98 44.798 2531.22 182.563 2828.01 473.992C3127.25 767.831 3264.01 1184.05 3262.99 1603.46C3261.98 2021.8 3136.05 2450.52 2822.57 2727.49C2523.1 2992.08 2097.44 3011.23 1698.66 2985.6C1330.8 2961.96 985.022 2837.76 710.468 2591.76C418.024 2329.74 160.903 1996.11 156.069 1603.46C151.193 1207.37 405.153 870.009 685.831 590.518C965.752 311.781 1304.24 88.8446 1698.66 67.3894Z" fill="#08BA9C"/>
<mask id="mask0_2_879" style="mask-type:alpha" maskUnits="userSpaceOnUse" x="156" y="65" width="3108" height="2929">
<path fill-rule="evenodd" clip-rule="evenodd" d="M1698.72 67.4221C2114.02 44.8309 2531.25 182.594 2828.02 474.02C3127.26 767.856 3264.01 1184.07 3262.99 1603.48C3261.98 2021.81 3136.06 2450.52 2822.59 2727.49C2523.13 2992.08 2097.48 3011.23 1698.72 2985.6C1330.87 2961.96 985.105 2837.76 710.562 2591.77C418.128 2329.75 161.017 1996.13 156.183 1603.48C151.307 1207.39 405.258 870.033 685.926 590.545C965.836 311.811 1304.31 88.877 1698.72 67.4221Z" fill="#08BA9C"/>
</mask>
<g mask="url(#mask0_2_879)">
<path d="M2526.45 2439.83C2520.65 2443.98 2514.02 2448.12 2508.22 2452.27C2501.58 2456.41 2495.78 2460.56 2489.15 2463.88C2483.35 2467.19 2478.37 2470.51 2472.57 2473.82C2471.74 2474.65 2470.91 2474.65 2470.08 2475.48C2451.01 2487.09 2431.12 2497.86 2411.22 2507.81C2405.42 2511.13 2398.79 2514.44 2392.98 2516.93C2392.98 2516.93 2392.15 2517.76 2391.33 2517.76C2384.69 2521.08 2378.06 2524.39 2371.43 2527.71C2358.16 2534.34 2344.07 2540.14 2330.81 2545.95C2324.18 2549.26 2316.71 2551.75 2310.08 2554.24C2303.45 2556.72 2295.99 2560.04 2289.36 2562.53C2282.72 2565.01 2275.26 2568.33 2268.63 2570.82C2268.63 2570.82 2268.63 2570.82 2267.8 2570.82C2261.17 2573.3 2253.71 2575.79 2247.08 2578.28C2232.15 2583.25 2216.4 2588.23 2201.48 2593.2C2196.51 2594.86 2190.7 2596.52 2185.73 2598.18C2169.98 2603.15 2154.23 2607.29 2138.48 2610.61C2132.67 2612.27 2126.87 2613.1 2120.24 2614.76C2105.32 2618.07 2089.56 2621.39 2074.64 2624.7C2071.33 2625.53 2068.84 2625.53 2065.52 2626.36C2060.55 2627.19 2054.75 2628.02 2049.77 2628.85C2042.31 2629.68 2035.68 2631.34 2028.22 2632.16C2024.9 2632.99 2021.59 2632.99 2018.27 2633.82C2014.12 2634.65 2009.15 2635.48 2004.18 2635.48C1990.91 2637.14 1976.82 2638.8 1963.55 2640.45C1959.41 2641.28 1954.44 2641.28 1950.29 2642.11H1949.46C1943.66 2642.94 1937.85 2642.94 1932.05 2643.77C1926.25 2644.6 1920.45 2644.6 1914.64 2644.6C1911.33 2644.6 1907.18 2645.43 1903.87 2645.43C1897.23 2645.43 1891.43 2646.26 1885.63 2646.26C1877.34 2646.26 1869.88 2647.09 1861.59 2647.09C1853.3 2647.09 1845.83 2647.09 1837.54 2647.09C1831.74 2647.09 1825.94 2647.09 1820.14 2647.09C1471.12 2642.11 1156.1 2493.72 932.262 2258.28C932.262 2258.28 932.262 2257.45 931.433 2257.45C957.132 2206.88 1052.47 2115.69 1151.95 2040.25C1277.96 1944.91 1456.2 1886.05 1456.2 1886.05C1456.2 1886.05 1573.09 1866.99 2006.66 1957.35C2337.44 2026.99 2478.37 2309.68 2526.45 2439.83Z" fill="#F7D3B5"/>
<path d="M2098.68 2186.98C2081.27 2272.37 1968.53 2322.94 1778.68 2246.67C1545.73 2152.17 1456.2 1886.05 1456.2 1886.05C1443.76 1695.38 1414.75 1532.06 1414.75 1532.06C1684.18 1508.85 2002.52 1823.88 2002.52 1823.88L2038.99 1979.73C2042.31 1993 2048.94 2004.6 2058.89 2012.89C2076.3 2042.74 2110.29 2132.27 2098.68 2186.98Z" fill="#F7D3B5"/>
<path d="M2058.89 2013.72C1900.55 2005.43 1783.66 1982.22 1658.48 1757.56C1764.59 1851.23 1889.77 1886.88 2021.59 1903.46L2038.99 1979.73C2042.31 1993.82 2048.94 2005.43 2058.89 2013.72Z" fill="#EFBDA5"/>
<path d="M2386.35 1014.76C2401.27 1084.4 2408.73 1140.77 2368.11 1326.47C2327.49 1512.17 2405.42 1697.87 2209.77 1867.81C2077.96 1982.22 1847.49 2003.77 1663.45 1878.59C1601.28 1836.31 1544.07 1777.45 1497.65 1700.35C1461.17 1639.84 1418.89 1582.63 1371.64 1530.41C1306.15 1459.11 1227.39 1315.69 1266.35 1062.01C1329.36 649.165 1738.06 601.912 1979.31 647.507C2220.55 693.103 2345.73 830.719 2386.35 1014.76Z" fill="#F7D3B5"/>
<path d="M1592.99 1338.9C1592.99 1338.9 1567.29 1214.55 1446.25 1229.47C1341.79 1242.74 1305.32 1493.1 1542.42 1562.74" fill="#F7D3B5"/>
<path d="M1534.95 1449.16C1534.95 1449.16 1505.11 1430.1 1508.43 1396.94C1513.4 1357.97 1508.43 1333.93 1490.19 1326.47C1444.59 1307.4 1435.47 1360.46 1437.13 1367.09" stroke="#423232" stroke-width="13" stroke-miterlimit="10" stroke-linecap="round" stroke-linejoin="round"/>
<path d="M2167.49 1529.58C2167.49 1529.58 2198.99 1531.24 2228.84 1495.59C2245.42 1475.69 2259.51 1450.82 2250.39 1443.36C2241.27 1435.07 2091.22 1458.28 2081.27 1478.18C2071.33 1498.07 2129.36 1529.58 2167.49 1529.58Z" fill="#EFBDA5"/>
<path d="M2192.36 1251.03C2192.36 1251.03 2194.02 1329.79 2244.59 1417.66C2266.97 1456.62 2232.98 1520.46 2159.2 1531.24" stroke="#423232" stroke-width="13" stroke-miterlimit="10" stroke-linecap="round" stroke-linejoin="round"/>
<path opacity="0.42" d="M1743.04 1571.86C1790.2 1571.86 1828.43 1540.31 1828.43 1501.39C1828.43 1462.47 1790.2 1430.92 1743.04 1430.92C1695.88 1430.92 1657.65 1462.47 1657.65 1501.39C1657.65 1540.31 1695.88 1571.86 1743.04 1571.86Z" fill="#ED938A"/>
<path opacity="0.42" d="M2354.85 1432.58C2352.36 1479.01 2353.19 1524.6 2349.87 1570.2C2313.4 1561.91 2286.87 1534.55 2286.87 1502.22C2286.87 1467.4 2315.88 1439.21 2354.85 1432.58Z" fill="#ED938A"/>
<path d="M2323.35 2118.94C2323.35 2118.94 2194.85 1998.74 2068.02 1969.72C2068.02 1969.72 2082.94 2183.61 1932.06 2167.86C1688.33 2142.16 1458.69 1883.5 1458.69 1883.5C1458.69 1883.5 1298.69 1928.27 1169.37 2026.92C1169.37 2026.92 1186.78 2281.43 1477.76 2407.44C1768.74 2533.45 2174.13 2471.27 2270.3 2390.03C2366.46 2308.79 2347.39 2145.47 2323.35 2118.94Z" fill="#FFFBF5"/>
<path d="M1098.07 2081.64C1098.07 2081.64 937.242 2170.34 849.367 2423.19C761.491 2676.04 763.978 3052.41 763.978 3052.41H2655.79C2655.79 3052.41 2602.73 2431.48 2415.37 2224.23C2415.37 2224.23 2427.81 2409.93 2060.55 2429C1693.3 2448.06 1251.44 2331.17 1240.66 2263.19C1230.71 2193.56 1098.07 2081.64 1098.07 2081.64Z" fill="#FFFBF5"/>
<path d="M2492.47 3067.34C1971.85 3307.75 1114.65 3090.55 1114.65 3090.55C1114.65 3090.55 1097.24 2879.15 1160.25 2498.63C1162.73 2481.22 1165.22 2463.81 1166.88 2448.06C1185.12 2275.63 1142.84 2157.08 1098.07 2082.47C1098.07 2063.4 1117.97 2050.14 1140.35 2031.07C1149.47 2023.61 1312.78 1922.47 1319.42 1927.44C1331.02 1944.02 1341.8 1960.6 1350.92 1978.01C1443.77 2149.62 1476.1 2333.66 1669.26 2360.19C1859.93 2386.72 2043.97 2382.57 2175.79 2353.56C2302.63 2325.37 2218.07 2114.8 2161.69 2011.17C2159.21 2007.03 2159.21 2005.37 2156.72 2003.71C2175.79 1991.28 2397.13 2161.22 2414.54 2224.23C2451.02 2315.42 2460.97 2383.4 2471.75 2472.1C2507.39 2763.09 2492.47 3067.34 2492.47 3067.34Z" fill="#B5E2DC"/>
<path d="M1354.24 2354.38C1383.54 2354.38 1407.29 2330.63 1407.29 2301.33C1407.29 2272.02 1383.54 2248.27 1354.24 2248.27C1324.93 2248.27 1301.18 2272.02 1301.18 2301.33C1301.18 2330.63 1324.93 2354.38 1354.24 2354.38Z" fill="#647184"/>
<path d="M2343.25 2376.77C2369.8 2376.77 2391.33 2355.24 2391.33 2328.68C2391.33 2302.13 2369.8 2280.6 2343.25 2280.6C2316.69 2280.6 2295.17 2302.13 2295.17 2328.68C2295.17 2355.24 2316.69 2376.77 2343.25 2376.77Z" fill="#647184"/>
<path d="M1724.8 2452.21C1850.81 2459.67 2008.33 2462.16 2140.14 2443.09C2228.84 2430.65 2309.26 2496.15 2315.89 2584.85C2321.69 2672.73 2324.18 2779.67 2310.09 2873.35C2281.07 3075.63 1557.34 3065.68 1545.74 2887.44C1539.11 2795.42 1533.3 2720.81 1526.67 2659.46C1514.24 2544.23 1608.74 2445.58 1724.8 2452.21Z" stroke="#647184" stroke-width="13" stroke-miterlimit="10"/>
<path d="M1966.05 2167.03C1966.05 2167.03 1814.34 2351.07 1767.91 2336.97C1721.49 2322.88 1432.99 2169.51 1387.4 1907.55C1387.4 1907.55 1423.04 1849.52 1454.55 1831.28C1454.55 1831.28 1541.59 1984.64 1699.11 2076.66C1849.16 2163.71 1966.05 2167.03 1966.05 2167.03Z" fill="#FFFBF5"/>
<path d="M1966.05 2167.03C1966.05 2167.03 1814.34 2351.07 1767.91 2336.97C1721.49 2322.88 1432.99 2169.51 1387.4 1907.55" stroke="#D0D6DD" stroke-width="13" stroke-miterlimit="10" stroke-linecap="round" stroke-linejoin="round"/>
<path d="M1966.05 2167.03C1966.05 2167.03 2083.77 2304.64 2122.73 2306.3C2161.69 2307.96 2178.27 2065.89 2061.38 1943.19C2061.38 1943.19 2043.15 1948.17 2035.68 1949.83C2034.86 1949 2093.72 2125.58 1966.05 2167.03Z" fill="#FFFBF5"/>
<path d="M1966.05 2167.03C1966.05 2167.03 2083.77 2304.64 2122.73 2306.3C2161.69 2307.96 2178.27 2065.89 2061.38 1943.19" stroke="#D0D6DD" stroke-width="13" stroke-miterlimit="10" stroke-linecap="round" stroke-linejoin="round"/>
<path d="M1954.44 2180.29C1954.44 2180.29 1931.23 2205.99 1939.52 2262.36C1947.81 2317.91 1946.15 2373.45 1946.15 2373.45" stroke="#D0D6DD" stroke-width="13" stroke-miterlimit="10" stroke-linecap="round" stroke-linejoin="round"/>
<path d="M1996.72 2304.64C2007.25 2304.64 2015.79 2296.11 2015.79 2285.58C2015.79 2275.05 2007.25 2266.51 1996.72 2266.51C1986.19 2266.51 1977.65 2275.05 1977.65 2285.58C1977.65 2296.11 1986.19 2304.64 1996.72 2304.64Z" fill="#D0D6DD"/>
<path d="M1895.02 1334.26C1875.12 1333.43 1860.2 1316.85 1861.86 1296.96L1862.69 1273.75C1863.52 1253.85 1880.1 1238.93 1899.99 1240.58C1919.89 1241.41 1934.81 1257.99 1933.15 1277.89L1932.32 1301.1C1931.5 1320.17 1914.92 1335.09 1895.02 1334.26Z" fill="#423232"/>
<path d="M2244.03 1346.7C2225.79 1345.87 2211.7 1330.12 2212.53 1311.88L2213.36 1290.33C2214.19 1272.09 2229.94 1257.99 2248.18 1258.82C2266.42 1259.65 2280.51 1275.4 2279.68 1293.64L2278.85 1315.2C2278.02 1333.43 2262.27 1347.53 2244.03 1346.7Z" fill="#423232"/>
<path d="M1975.43 1286.18C1975.43 1286.18 1953.88 1255.51 1916.57 1249.7C1885.9 1244.73 1851.91 1259.65 1846.94 1277.06" stroke="#423232" stroke-width="13" stroke-miterlimit="10" stroke-linecap="round" stroke-linejoin="round"/>
<path d="M2219.99 1293.64C2219.99 1293.64 2219.99 1267.11 2258.13 1267.11C2289.63 1267.11 2302.89 1296.13 2302.89 1296.13" stroke="#423232" stroke-width="13" stroke-miterlimit="10" stroke-linecap="round" stroke-linejoin="round"/>
<path d="M2009.42 1152.71C2026.83 1158.51 2044.24 1142.76 2040.92 1123.69C2039.27 1113.75 2035.12 1103.8 2026.83 1096.34C2001.96 1073.95 1899.16 1054.06 1836.99 1083.07C1782.27 1109.6 1929.84 1126.18 2009.42 1152.71Z" fill="#423232"/>
<path d="M2257.29 1165.97C2243.2 1170.95 2228.28 1156.02 2230.77 1138.62C2231.6 1129.5 2234.91 1120.38 2241.54 1113.75C2261.44 1093.85 2329.42 1078.1 2372.53 1108.77C2409.83 1134.47 2321.96 1141.93 2257.29 1165.97Z" fill="#423232"/>
<path d="M2052.36 1946.89C2112.88 1931.13 2166.76 1903.78 2210.7 1865.64C2406.35 1696.52 2328.42 1510 2369.04 1324.3C2382.31 1264.61 2389.77 1218.18 2394.74 1180.88C2388.11 1180.05 2380.65 1179.22 2373.19 1177.56C2343.34 1173.42 2323.45 1146.06 2326.76 1116.21C2328.42 1103.78 2329.25 1091.34 2330.08 1078.08C2326.76 1077.25 2327.59 1077.25 2324.28 1077.25C2319.3 1093 2313.5 1109.58 2309.36 1125.33C2301.89 1150.2 2277.85 1165.96 2252.98 1164.3H2252.15C2223.14 1161.81 2201.58 1137.77 2201.58 1108.75C2202.41 1088.03 2202.41 1067.3 2203.24 1046.58C2199.93 1045.75 2201.58 1046.58 2198.27 1045.75C2194.12 1067.3 2189.98 1088.86 2185.83 1111.24C2180.86 1138.6 2156.82 1157.67 2129.46 1156.01C2058.16 1152.69 1987.7 1151.86 1923.86 1151.86C1895.68 1151.86 1872.47 1131.14 1869.98 1102.95C1865.83 1066.47 1860.03 1030 1850.08 992.692C1839.3 1025.85 1839.3 1060.67 1840.96 1096.32C1842.62 1126.99 1818.58 1152.69 1787.91 1153.52C1714.12 1155.18 1664.38 1157.67 1656.09 1158.49C1658.58 1272.07 1632.88 1398.08 1587.28 1312.69C1583.97 1306.89 1581.48 1301.08 1578.17 1293.62C1559.1 1259.63 1520.96 1219.01 1448.84 1228.13C1347.7 1241.4 1310.39 1476.01 1522.62 1553.93C1523.45 1571.34 1527.6 1588.75 1535.06 1606.99C1567.39 1685.75 1581.48 1751.24 1581.48 1805.12C1581.48 2117.66 1069.98 1987.51 925.732 1703.98C870.189 1593.73 869.359 1461.08 974.644 1321.81C1232.47 1005.96 1155.37 1126.16 1212.57 938.806C1306.25 632.071 1520.13 534.247 1803.66 536.734C1803.66 536.734 2275.37 536.734 2400.55 651.138C2525.73 765.542 2482.62 1122.85 2471.84 1155.18C2468.53 1165.13 2460.24 1170.93 2451.12 1175.07C2446.14 1338.39 2462.72 1395.59 2520.75 1527.4C2647.59 1817.56 2408.01 2093.62 2052.36 1946.89Z" fill="#423232"/>
<path d="M1587.28 1313.52C1583.97 1307.72 1581.48 1301.91 1578.17 1294.45C1581.48 1301.08 1584.8 1307.72 1587.28 1313.52Z" fill="#FEE4BF"/>
<path d="M2019.93 1429.21H1826.77C1776.2 1429.21 1735.58 1388.58 1735.58 1338.01V1259.26C1735.58 1208.69 1776.2 1168.07 1826.77 1168.07H2019.93C2070.5 1168.07 2111.12 1208.69 2111.12 1259.26V1338.01C2111.12 1388.58 2069.67 1429.21 2019.93 1429.21Z" stroke="#423232" stroke-width="3" stroke-miterlimit="10" stroke-linecap="round" stroke-linejoin="round"/>
<path d="M2353.19 1168.07H2257.86C2224.7 1168.07 2197.34 1195.42 2197.34 1228.58V1300.71C2208.95 1342.16 2225.53 1381.95 2250.4 1417.6C2252.88 1417.6 2255.37 1418.43 2257.86 1418.43H2353.19C2386.36 1418.43 2413.71 1391.07 2413.71 1357.91V1228.58C2414.54 1194.59 2387.18 1168.07 2353.19 1168.07Z" stroke="#423232" stroke-width="3" stroke-miterlimit="10" stroke-linecap="round" stroke-linejoin="round"/>
<path d="M2111.12 1243.51C2139.31 1240.19 2174.96 1237.7 2204.8 1241.02" stroke="#423232" stroke-width="3" stroke-miterlimit="10" stroke-linecap="round" stroke-linejoin="round"/>
<path d="M1735.58 1249.31L1543.25 1255.94" stroke="#423232" stroke-width="3" stroke-miterlimit="10" stroke-linecap="round" stroke-linejoin="round"/>
<path d="M2031.28 1604.12C2020.05 1609.07 2014.65 1599.18 1997.13 1607.72C1984.55 1613.56 1977.81 1615.36 1962.54 1606.37C1952.65 1600.08 1940.52 1609.07 1928.84 1591.99" stroke="#423232" stroke-width="13.4786" stroke-miterlimit="10" stroke-linecap="round" stroke-linejoin="round"/>
</g>
</svg>
